<svg id="Layer_5" data-name="Layer 5" xmlns="http://www.w3.org/2000/svg" viewBox="0 0 1400 980"><defs><style>.cls-1{fill:none;}.cls-2{fill:#60718d;}.cls-3{fill:#996b53;}.cls-4{fill:#12b57b;}.cls-5{fill:#bca877;}.cls-6{fill:#a9b3c1;}.cls-7{fill:#ae6344;}.cls-8{fill:#e3e2d5;}.cls-9{fill:#445d7b;}.cls-10{fill:#f8db94;}.cls-11{fill:#00a99d;}.cls-12{fill:#f4bb3a;}.cls-13{fill:#39b54a;}.cls-14{fill:#7f2e19;}.cls-15{fill:#999;}.cls-16{fill:#666;}.cls-17{fill:gray;}.cls-18{fill:#7989a3;}.cls-19{fill:#0071bc;}.cls-20{fill:#fff;}.cls-21{fill:#85402a;}.cls-22{fill:#f09b36;}.cls-23{fill:#a17a94;}.cls-24{fill:#31b78d;}.cls-25{fill:#4ac6e0;}.cls-26{fill:#ca6a4f;}.cls-27{fill:#895881;}.cls-28{fill:#bec0c2;}.cls-29{fill:#c2ce2f;}.cls-30{fill:#b55232;}.cls-31{fill:#ef4d4e;}.cls-32{fill:#0d0e1f;}</style></defs><path class="cls-1" d="M764.3,267.7a11.19,11.19,0,1,0-7.2-4.62A11.18,11.18,0,0,0,764.3,267.7Z"/><path class="cls-1" d="M1004,687.62V640.93c0-.79-1.5-2-3-2.77h-6.49v57.33C1003.82,694,1004,687.91,1004,687.62Z"/><path class="cls-1" d="M654.56,235.43a18,18,0,1,0-18-18A18,18,0,0,0,654.56,235.43Z"/><path class="cls-2" d="M610.86,227a44.4,44.4,0,0,0,6.06,14.63,4.59,4.59,0,0,1-.61,5.72l-8.91,8.91,8.37,8.37,8.91-8.91a4.59,4.59,0,0,1,5.72-.61A44.4,44.4,0,0,0,645,261.13a4.58,4.58,0,0,1,3.61,4.48V278.2h11.84V265.61a4.58,4.58,0,0,1,3.61-4.48,44.58,44.58,0,0,0,14.63-6.06,4.59,4.59,0,0,1,5.72.61l8.9,8.91,8.38-8.37-8.91-8.91a4.59,4.59,0,0,1-.62-5.72A44.21,44.21,0,0,0,698.26,227a4.58,4.58,0,0,1,4.48-3.61h12.59V211.51H702.74a4.58,4.58,0,0,1-4.48-3.61,44.3,44.3,0,0,0-6.07-14.63,4.59,4.59,0,0,1,.62-5.72l8.91-8.9-8.38-8.38-8.9,8.91a4.59,4.59,0,0,1-5.72.62,44.39,44.39,0,0,0-14.63-6.07,4.58,4.58,0,0,1-3.61-4.48V156.66H648.64v12.59a4.58,4.58,0,0,1-3.61,4.48,44.21,44.21,0,0,0-14.63,6.07,4.59,4.59,0,0,1-5.72-.62l-8.91-8.91-8.37,8.38,8.91,8.9a4.59,4.59,0,0,1,.61,5.72,44.49,44.49,0,0,0-6.06,14.63,4.59,4.59,0,0,1-4.48,3.61H593.79v11.84h12.59A4.59,4.59,0,0,1,610.86,227ZM668.67,254c-3.87,0-3.86-6,0-6S672.53,254,668.67,254Zm-17-74c3.86,0,3.86,6,0,6S647.81,180,651.67,180Zm2.89,10.25a27.16,27.16,0,1,1-27.16,27.16A27.19,27.19,0,0,1,654.56,190.27Zm-37.73,18A46.76,46.76,0,0,1,636,183.55c3.25-2.1,6.26,3.09,3,5.18a40.18,40.18,0,0,0-16.44,21.11C621.39,213.48,615.59,211.91,616.83,208.24Z"/><path class="cls-3" d="M621.71,443.12v-9.8h9.16V436c15.77,2.3,77.66,10.36,138.26,5.17v-7.86h9.16v9.8a15,15,0,0,1,5.29-2.14,12.31,12.31,0,0,1,4.52,0c8-5.86,10.1-18.54,10.63-25-9.88-1.72-14.45-5.37-15-5.83a4.57,4.57,0,0,1-.14-6.88c4.31-4,7.18-12,8.81-18.55-12,3.37-24.88,1.35-25.55,1.24a4.58,4.58,0,0,1-1.94-8.24c4.09-2.94,6.66-11.36,7.92-18.88-22.44,9.38-52.37,14.29-53.78,14.52a4.58,4.58,0,0,1-4-7.68c6.79-7.16,6.76-16.52,5.51-23.18-19.59,23.6-59.85,38.37-61.74,39.05a4.58,4.58,0,0,1-6.1-4.92c.55-4.11-.83-8.92-3-13.17a74.47,74.47,0,0,1-9.91,15.05c-5.37,6.61-10.94,13.82-15.28,21.77-7.24,13.23-8.69,27.62-8.72,40.53l.7.1A15,15,0,0,1,621.71,443.12Zm122.4-59.7c3.69,0,3.69,5.73,0,5.73S740.43,383.42,744.11,383.42Zm-28.93,34.37c3.69,0,3.69,5.73,0,5.73S711.49,417.79,715.18,417.79Zm-9.74.86c3.69,0,3.69,5.73,0,5.73S701.76,418.65,705.44,418.65Zm-6.94-43.79c5.16,0,5.15,8,0,8S693.35,374.86,698.5,374.86Zm-7.5,18.5c5.16,0,5.15,8,0,8S685.85,393.36,691,393.36Zm-16-8c5.16,0,5.15,8,0,8S669.85,385.36,675,385.36Zm-20.37,32.93a189.17,189.17,0,0,0,40.21,2c3.69-.21,3.66,5.52,0,5.72a196.33,196.33,0,0,1-41.74-2.16C649.47,423.24,651,417.72,654.63,418.29Zm-25.55-5.51a32,32,0,0,1,8.11-14.23c3.61-3.69,9.26,2,5.66,5.66a23.73,23.73,0,0,0-6.06,10.69C635.47,419.88,627.75,417.76,629.08,412.78Z"/><path class="cls-4" d="M657.74,721.71l7.49-20.91H644a23.29,23.29,0,0,1-3.61,20.91Z"/><polygon class="cls-2" points="747.53 736.41 838.64 736.41 838.64 730.87 745.55 730.87 747.53 736.41"/><path class="cls-5" d="M778.29,466.84v6h3.86c1.78-.88,6.52-7.19,7.68-14.33.33-2,.57-5.64-1.48-7.36a3.69,3.69,0,0,0-3.15-1.1c-2.56.46-5.41,3.71-6.91,5.89v6.85a11,11,0,0,0,2.7-3c1.13-1.89,4.1-.16,3,1.74A14.26,14.26,0,0,1,778.29,466.84Z"/><path class="cls-4" d="M783.85,721.71a23.12,23.12,0,0,1-5.54-14.17l-.15-6.74H734.77l7.49,20.91Z"/><path class="cls-6" d="M542.33,686.36H815.67c3.13,0,4.35,2.95,3.67,5.27h45.27a9.94,9.94,0,0,0,9.93-9.93V491.89a9.94,9.94,0,0,0-9.93-9.93H535.39a9.94,9.94,0,0,0-9.93,9.93V681.7a9.94,9.94,0,0,0,9.93,9.93h3.27C538,689.31,539.2,686.36,542.33,686.36ZM848.33,582c3.87,0,3.86,6,0,6S844.47,582,848.33,582Zm2.53,85.17c-4.43,0-4.43-6.88,0-6.88S855.28,667.19,850.86,667.19ZM827.47,496.28h24.06a5.44,5.44,0,1,1,0,10.88H827.47a5.44,5.44,0,1,1,0-10.88Zm-37.14,88.41H827c3.87,0,3.86,6,0,6H790.33C786.47,590.69,786.47,584.69,790.33,584.69Zm-38,76.39h84.79c4.43,0,4.42,6.87,0,6.87H752.32C747.89,668,747.9,661.08,752.32,661.08ZM707,503c5.16,0,5.15,8,0,8S701.85,503,707,503Zm-14.67,0c5.16,0,5.15,8,0,8S687.19,503,692.33,503ZM700,554a32.85,32.85,0,1,1-32.85,32.84A32.88,32.88,0,0,1,700,554ZM585.67,503H667c5.16,0,5.15,8,0,8H585.67C580.51,511,580.52,503,585.67,503Zm-38.82-.82c4.43,0,4.42,6.87,0,6.87S542.43,502.2,546.85,502.2Zm0,17.57c4.43,0,4.42,6.87,0,6.87S542.43,519.77,546.85,519.77Zm0,17.56c4.43,0,4.42,6.88,0,6.88S542.43,537.33,546.85,537.33Zm-3.44,26.36c0-4.43,6.88-4.43,6.88,0v95.48c0,4.43-6.88,4.42-6.88,0Z"/><path class="cls-7" d="M923.52,618.11h-.06v.06Z"/><path class="cls-7" d="M923.46,622.54v77.3h23.29c3,0,3,4.58,0,4.58H923.46v10.7h61.87v-85h-29.6c-3,0-3-4.58,0-4.58h29.6v-2.2H925.5A2.76,2.76,0,0,1,923.46,622.54Zm34.94,81.88c-2.95,0-2.95-4.58,0-4.58S961.35,704.42,958.4,704.42Zm10.31,0c-3,0-2.94-4.58,0-4.58S971.66,704.42,968.71,704.42Zm-22.34-53.61c9.76-5.63,21.3-4,25.72,3.68s.08,18.47-9.68,24.11a24.27,24.27,0,0,1-12,3.34c-5.85,0-11-2.43-13.7-7C932.28,667.26,936.62,656.45,946.37,650.81Z"/><path class="cls-8" d="M700,610.47a23.68,23.68,0,1,0-23.68-23.68A23.7,23.7,0,0,0,700,610.47Z"/><path class="cls-9" d="M726.4,252.64l7.43,1.34a4,4,0,0,1,3.3,3.8,28.74,28.74,0,0,0,2.21,10.08,4,4,0,0,1-1.42,4.83L731.73,277l3.49,5,6.19-4.31a4,4,0,0,1,5,.35,28.66,28.66,0,0,0,8.68,5.58,4,4,0,0,1,2.42,4.42l-1.33,7.42,6,1.08,1.33-7.43a4,4,0,0,1,3.81-3.29,29,29,0,0,0,10.08-2.21,4,4,0,0,1,4.83,1.41l4.31,6.19,5-3.49-4.31-6.19a4,4,0,0,1,.35-5,28.83,28.83,0,0,0,5.58-8.69,4,4,0,0,1,4.42-2.42l7.42,1.33,1.08-6-7.42-1.33a4,4,0,0,1-3.3-3.8,29,29,0,0,0-2.21-10.09,4,4,0,0,1,1.41-4.83l6.19-4.31-3.49-5-6.19,4.32a4,4,0,0,1-5-.36,29,29,0,0,0-8.69-5.58,4,4,0,0,1-2.42-4.41l1.33-7.43-6-1.08L769,224.25a4,4,0,0,1-3.81,3.3,28.79,28.79,0,0,0-10.08,2.21,4,4,0,0,1-4.83-1.41l-4.31-6.2-5,3.49,4.31,6.19a4,4,0,0,1-.35,5,28.85,28.85,0,0,0-5.58,8.68,4,4,0,0,1-4.41,2.42l-7.43-1.33Zm60.48-14.28c3.86,0,3.86,6,0,6S783,238.36,786.88,238.36ZM747.37,253.3A19.2,19.2,0,0,1,782,245.73a19,19,0,0,1,3.14,14.35,19.23,19.23,0,0,1-18.89,15.81,19.7,19.7,0,0,1-3.4-.3,19.2,19.2,0,0,1-15.51-22.29Z"/><path class="cls-10" d="M769.13,472.79V450.38c-14.26,1.19-28.57,1.68-42.34,1.68a715.7,715.7,0,0,1-95.92-6.79v27.52h26.35v-3.44a5.73,5.73,0,1,1,11.46,0v3.44h62.64v-3.44a5.73,5.73,0,1,1,11.45,0v3.44Z"/><path class="cls-5" d="M617.85,472.79h3.86v-7.18a28.84,28.84,0,0,1-5.12-4.5c-1.47-1.65.95-4.09,2.43-2.43a26.27,26.27,0,0,0,2.69,2.59v-5.38c-1.5-2.18-4.35-5.43-6.91-5.89a3.66,3.66,0,0,0-3.14,1.1c-2.06,1.72-1.82,5.35-1.49,7.36C611.33,465.6,616.07,471.91,617.85,472.79Z"/><path class="cls-10" d="M787.33,700.8l.14,6.46a14.13,14.13,0,0,0,14.66,13.49,14.15,14.15,0,0,0,13.58-14.6l-.39-5.35Z"/><path class="cls-11" d="M1126.8,736.41V724.28H1107v12.13Z"/><path class="cls-12" d="M1190,636.51h-20.81v24.3H1190Z"/><path class="cls-13" d="M1069.51,633.36v103h24.06V633.35h-24.06ZM1087.84,704a6.3,6.3,0,0,1-12.6,0V660.12a6.3,6.3,0,0,1,12.6,0Z"/><path class="cls-14" d="M959,672.64c6.36-3.67,9.64-10.41,7.16-14.72-1.38-2.37-4.28-3.6-7.67-3.6a17.56,17.56,0,0,0-8.66,2.45c-6.36,3.67-9.64,10.41-7.16,14.71S952.61,676.32,959,672.64Zm-10.1-5.14a4,4,0,0,0,1.48-.35,7.17,7.17,0,0,0,1.88-1.23c.62-.55,1.29-1.32,2.09-2.17a14.73,14.73,0,0,1,2.71-2.38,7.08,7.08,0,0,1,3.05-1.1,4.65,4.65,0,0,1,2.21.27,3,3,0,0,1,.71.38,4.59,4.59,0,0,0-.78.09,5.08,5.08,0,0,0-1.73.73,9.55,9.55,0,0,0-1.85,1.65c-.6.68-1.23,1.52-2,2.4a10.12,10.12,0,0,1-2.87,2.24,6,6,0,0,1-3.07.62,3.6,3.6,0,0,1-1.89-.68,2.75,2.75,0,0,1-.38-.36l-.11-.13A2.86,2.86,0,0,0,948.88,667.5Z"/><path class="cls-15" d="M1137,611.86a3.06,3.06,0,0,1-1-.19V736.41H1160V611.68a3.2,3.2,0,0,1-1,.18Zm16.72,95.43H1142V662.22h11.74Zm0-55.57H1142V631.38h11.74Z"/><path class="cls-16" d="M1190,602.36s0-.07,0-.1h-18.67a2.15,2.15,0,0,0-2.15,2.15v22.94H1190Zm-3.91,12.22a2.32,2.32,0,0,1-2.29-2.29v-2.87a2.34,2.34,0,0,1,2.29-2.29,2.31,2.31,0,0,1,2.29,2.29v2.87A2.34,2.34,0,0,1,1186.09,614.58Z"/><path class="cls-16" d="M1175.49,710.34c0-3,4.58-3,4.58,0v26.07H1190V670h-20.81v66.43h6.3Zm1.91-14.13c2.95,0,2.95,4.59,0,4.59S1174.45,696.21,1177.4,696.21Z"/><path class="cls-17" d="M1107,581.36V715.12h19.8V581.87a2.15,2.15,0,0,0-2.15-2.14h-18.12A2.86,2.86,0,0,1,1107,581.36Zm8.53,12.12c0-3,4.58-3,4.58,0v40.1c0,2.95-4.58,2.95-4.58,0Zm1.91,48.12c3,0,3,4.58,0,4.58S1114.49,641.6,1117.44,641.6Zm0,9.55c3,0,3,4.58,0,4.58S1114.49,651.15,1117.44,651.15Z"/><path class="cls-18" d="M319.89,390.29H517.54a8.31,8.31,0,0,0,8.3-8.3V262.26a8.31,8.31,0,0,0-8.3-8.31H319.89a8.31,8.31,0,0,0-8.3,8.31V382A8.31,8.31,0,0,0,319.89,390.29Zm-1.14-123.83a6,6,0,0,1,6-6H512.67a6,6,0,0,1,6,6V377.78a6,6,0,0,1-6,6H324.76a6,6,0,0,1-6-6Z"/><path class="cls-19" d="M1041,603.36v40.72h19.34V604.41a2.15,2.15,0,0,0-2.15-2.15H1040.8A3.08,3.08,0,0,1,1041,603.36Zm4.73,10.07c3,0,3,4.58,0,4.58S1042.78,613.43,1045.73,613.43Zm-2.29,8.88a2.34,2.34,0,0,1,2.29-2.29,2.31,2.31,0,0,1,2.29,2.29v2.87a2.29,2.29,0,0,1-4.58,0Z"/><path class="cls-19" d="M1060.34,736.41v-49.7H1041v49.7Zm-7.45-14.56c-3,0-3-4.58,0-4.58S1055.84,721.85,1052.89,721.85ZM1051,700.41c0-2.95,4.59-2.95,4.59,0v10.7c0,2.95-4.59,2.95-4.59,0Z"/><path class="cls-20" d="M509.52,269.61H327.91v105H509.52Zm-19.8,14.89a6.7,6.7,0,1,1-6.7,6.69A6.7,6.7,0,0,1,489.72,284.5Zm-23.67,0a6.7,6.7,0,1,1-6.69,6.69A6.7,6.7,0,0,1,466.05,284.5Zm-23.67,0a6.7,6.7,0,1,1-6.69,6.69A6.69,6.69,0,0,1,442.38,284.5Zm-23.66,0a6.7,6.7,0,1,1-6.7,6.69A6.7,6.7,0,0,1,418.72,284.5Zm-78-6.3h20.73V317H340.76Zm49.69,85.66H341.26V326h49.19Zm0-46.84H369.72V278.2h20.73Zm35.46,46.84H411.52V326h14.39Zm23.66,0H435.19V326h14.38Zm23.67,0H458.86V326h14.38Zm23.67,0H482.52V326h14.39ZM498.5,317H411.9v-6.16h86.6Z"/><path class="cls-12" d="M1060.34,677.54V653.25H1041v24.29Z"/><rect class="cls-21" x="920.02" y="724.28" width="68.75" height="12.12"/><path class="cls-22" d="M345.91,565.87a5.15,5.15,0,0,0-9.42-2.89,4.58,4.58,0,0,1,1-.12c4.67,0,5.09,6.53,1.31,7.78a5.25,5.25,0,0,0,1.95.38A5.16,5.16,0,0,0,345.91,565.87Z"/><path class="cls-20" d="M1072.09,269.61H890.48v105h181.61ZM925,349.05H903.61V327.66H925Zm30.69,0H934.31V327.66h21.38Zm30.7,0H965V327.66h21.39Zm30.69,15.87H995.69V343.54h21.39Zm0-29.12H995.69V314.41h21.39Zm31.25,29.12h-21.39V343.54h21.39Zm0-29.12h-21.39V314.41h21.39ZM1059,306.67H903.61v-26H1059Z"/><path class="cls-22" d="M363.56,617H358l21.5,55.14h5.53Z"/><path class="cls-23" d="M240.26,736.41h56.05v-28h-56v27.26A4.18,4.18,0,0,1,240.26,736.41ZM265,720.08h22c3.7,0,3.69,5.73,0,5.73H265C261.3,725.81,261.31,720.08,265,720.08Zm-10.12,0c3.69,0,3.69,5.73,0,5.73S251.19,720.08,254.87,720.08Zm-11.65,0c3.7,0,3.69,5.73,0,5.73S239.54,720.08,243.22,720.08Z"/><path class="cls-24" d="M358.62,604.35l-5.56-.09,2.9,7.45h5.53Z"/><path class="cls-24" d="M348.58,578.61l-4.8,1.87,7.93,20.32,5.56.09Z"/><path class="cls-25" d="M433.18,727.53h-47.9c-1.61.82-5.23,4.33-9.28,8.88h66.46C438.41,731.86,434.79,728.35,433.18,727.53Z"/><path class="cls-24" d="M403.09,718.36,386.4,675.59h-5.53l16.68,42.77Z"/><polygon class="cls-12" points="246.48 639.31 251.39 639.31 247.57 608.35 242.73 608.95 246.48 639.31"/><rect class="cls-26" x="241.24" y="591.56" width="4.87" height="10.31" transform="translate(-71.25 34.34) rotate(-7.04)"/><path class="cls-27" d="M296.31,701.56V680.17h-56v21.39Z"/><polygon class="cls-28" points="288.37 621.49 273.98 619.02 270.5 639.31 285.31 639.31 288.37 621.49"/><path class="cls-29" d="M291,606.23a3,3,0,0,0-2.46-3.48l-8.46-1.44a3,3,0,0,0-3.47,2.44l-1.45,8.49,14.38,2.47Z"/><path class="cls-18" d="M882.46,390.29h197.65a8.31,8.31,0,0,0,8.3-8.3V262.26a8.31,8.31,0,0,0-8.3-8.31H882.46a8.31,8.31,0,0,0-8.3,8.31V382A8.31,8.31,0,0,0,882.46,390.29Zm-1.14-123.83a6,6,0,0,1,6-6h187.91a6,6,0,0,1,6,6V377.78a6,6,0,0,1-6,6H887.33a6,6,0,0,1-6-6Z"/><path class="cls-30" d="M1209.4,751.36H711.27V763.9h501.3a.15.15,0,0,0,.14-.14V749.53A3.64,3.64,0,0,1,1209.4,751.36Z"/><path class="cls-23" d="M240.33,673.3h56V651a2.49,2.49,0,0,0-2.48-2.48h-53.5Z"/><path class="cls-10" d="M604.65,700.8l3.62,11.27a14.14,14.14,0,0,0,11.34,9.64h4.23a14.41,14.41,0,0,0,2.21-.51,14.13,14.13,0,0,0,9.13-17.77l-.84-2.63Z"/><path class="cls-22" d="M447.24,451.09l-2.74,4.1,2.18,1.37c1.87,1.18.14,4.15-1.73,3L442.6,458l-6.31,9.45-12.92,19.36a117.64,117.64,0,0,0,10.21,11.83l3.7-5.54a2.64,2.64,0,0,1-.35-.23l-3.15-2.58a1.74,1.74,0,0,1,0-2.43,1.77,1.77,0,0,1,2.43,0l3,2.42,22.7-34Q454.66,453.33,447.24,451.09Z"/><path class="cls-2" d="M711.27,721.61v14.8h26.52L725,700.8H679.53A266.79,266.79,0,0,1,668,736.41h20.71v-14.8a11.27,11.27,0,0,1,22.54,0Z"/><path class="cls-2" d="M654.45,730.87h-30a22.72,22.72,0,0,1-2.72.18,22.29,22.29,0,0,1-2.71-.18H561.36v5.54h91.11Z"/><path class="cls-22" d="M374,520.1,376.8,516a28.24,28.24,0,0,1-3.8-3.53l-3.28,4.73,3.75,2.43A1.81,1.81,0,0,1,374,520.1Z"/><path class="cls-24" d="M395.62,444.32c2.44,9.57,8.19,25.14,21.05,36.05l21.24-31.81A159.08,159.08,0,0,0,395.62,444.32ZM409,459.38a30,30,0,0,1-5.61-9.58c-.75-2.08,2.57-3,3.31-.91a25.24,25.24,0,0,0,4.73,8.05C412.9,458.61,410.48,461.05,409,459.38Zm4.91,5.1a1.72,1.72,0,0,1,0-3.43A1.72,1.72,0,0,1,413.94,464.48Z"/><path class="cls-30" d="M688,751.36H187.29v12.4a.15.15,0,0,0,.14.14h501.3V751.28A4.18,4.18,0,0,1,688,751.36Z"/><path class="cls-24" d="M402.52,479c-.36-.43-.7-.88-1-1.32l-2.94-2-22.32,32.13a48,48,0,0,1,3.39,4.13Z"/><path class="cls-22" d="M372.09,522.79a2.31,2.31,0,0,1-.35-.18l-4-2.58-22.41,32.28a14.26,14.26,0,0,1,4.5,2.49Z"/><path class="cls-26" d="M700,719.51a2.1,2.1,0,0,0-2.1,2.1v64.54a2.1,2.1,0,1,0,4.2,0V721.61A2.1,2.1,0,0,0,700,719.51Z"/><rect class="cls-24" x="340.76" y="278.2" width="20.73" height="38.82"/><path class="cls-24" d="M369.72,317h20.73V278.2H369.72ZM379,302.36c5.16,0,5.15,8,0,8S373.85,302.36,379,302.36Z"/><path class="cls-22" d="M341.26,363.86h49.19V326H341.26Zm17.07-16.17h14c5.16,0,5.15,8,0,8h-14C353.18,355.69,353.19,347.69,358.33,347.69Z"/><rect class="cls-31" x="411.9" y="310.86" width="86.6" height="6.17"/><circle class="cls-31" cx="418.72" cy="291.19" r="6.69" transform="translate(-9.35 13.93) rotate(-1.88)"/><circle class="cls-31" cx="442.38" cy="291.19" r="6.69"/><circle class="cls-31" cx="466.05" cy="291.19" r="6.69"/><path class="cls-31" d="M489.72,297.89a6.7,6.7,0,1,0-6.7-6.7A6.7,6.7,0,0,0,489.72,297.89Z"/><rect class="cls-22" x="411.52" y="325.95" width="14.38" height="37.9"/><rect class="cls-24" x="435.19" y="325.95" width="14.38" height="37.9"/><rect class="cls-22" x="458.86" y="325.95" width="14.38" height="37.9"/><rect class="cls-24" x="482.52" y="325.95" width="14.38" height="37.9"/><path class="cls-19" d="M903.61,306.67H1059v-26H903.61Zm67.89-13.31c3.87,0,3.86,6,0,6S967.64,293.36,971.5,293.36Zm-48.5,1h33c3.87,0,3.86,6,0,6H923C919.13,300.36,919.14,294.36,923,294.36Z"/><rect class="cls-15" x="903.61" y="327.66" width="21.39" height="21.39"/><rect class="cls-9" x="934.31" y="327.66" width="21.39" height="21.39"/><rect class="cls-9" x="965" y="327.66" width="21.39" height="21.39"/><rect class="cls-31" x="995.69" y="314.41" width="21.39" height="21.39"/><rect class="cls-2" x="1026.94" y="314.41" width="21.39" height="21.39"/><rect class="cls-31" x="995.69" y="343.54" width="21.39" height="21.39"/><rect class="cls-2" x="1026.94" y="343.54" width="21.39" height="21.39"/><path class="cls-20" d="M240.33,735.69V708.43H235.2v28h5.06A4.18,4.18,0,0,0,240.33,735.69Z"/><path class="cls-20" d="M240.33,680.17H235.2v21.39h5.13Z"/><path class="cls-20" d="M237.69,648.47A2.49,2.49,0,0,0,235.2,651V673.3h5.13V648.47Z"/><path class="cls-20" d="M688,751.36a4.18,4.18,0,0,0,.73-.08v-5.71H187.43a.14.14,0,0,0-.14.14v5.65H688Z"/><path class="cls-20" d="M1209.4,751.36a3.64,3.64,0,0,0,3.31-1.83v-3.82a.14.14,0,0,0-.14-.14H711.27v5.79H1209.4Z"/><path class="cls-20" d="M585.67,511H667c5.15,0,5.16-8,0-8H585.67C580.52,503,580.51,511,585.67,511Z"/><path class="cls-20" d="M692.33,511c5.15,0,5.16-8,0-8S687.18,511,692.33,511Z"/><path class="cls-20" d="M707,511c5.15,0,5.16-8,0-8S701.84,511,707,511Z"/><path class="cls-20" d="M636.79,414.9a23.73,23.73,0,0,1,6.06-10.69c3.6-3.69-2.05-9.35-5.66-5.66a32,32,0,0,0-8.11,14.23C627.75,417.76,635.47,419.88,636.79,414.9Z"/><path class="cls-20" d="M675,393.36c5.15,0,5.16-8,0-8S669.84,393.36,675,393.36Z"/><path class="cls-20" d="M698.5,382.86c5.15,0,5.16-8,0-8S693.34,382.86,698.5,382.86Z"/><path class="cls-20" d="M691,401.36c5.15,0,5.16-8,0-8S685.84,401.36,691,401.36Z"/><path class="cls-20" d="M815.67,686.36H542.33c-3.13,0-4.34,2.95-3.67,5.27H819.34C820,689.31,818.8,686.36,815.67,686.36Z"/><path class="cls-20" d="M675,700.8l-12.75,35.61H668a266.79,266.79,0,0,0,11.51-35.61Z"/><path class="cls-20" d="M358.33,355.69h14c5.15,0,5.16-8,0-8h-14C353.19,347.69,353.18,355.69,358.33,355.69Z"/><path class="cls-20" d="M379,310.36c5.15,0,5.16-8,0-8S373.84,310.36,379,310.36Z"/><path class="cls-20" d="M464.06,453a117.68,117.68,0,0,0-14.84-4.89l-2,3q7.41,2.25,14.63,5.21Z"/><path class="cls-20" d="M437.91,448.56l2.76-4.14c-17.82-9.13-37.86-6.48-46.1-4.78.25,1.3.59,2.89,1.05,4.68A159.08,159.08,0,0,1,437.91,448.56Z"/><path class="cls-20" d="M337.5,562.86a4.58,4.58,0,0,0-1,.12,5.15,5.15,0,0,0,2.32,7.66C342.59,569.39,342.17,562.86,337.5,562.86Z"/><path class="cls-20" d="M622.61,209.84a40.18,40.18,0,0,1,16.44-21.11c3.23-2.09.22-7.28-3-5.18a46.76,46.76,0,0,0-19.19,24.69C615.59,211.91,621.39,213.48,622.61,209.84Z"/><path class="cls-20" d="M651.67,186c3.86,0,3.86-6,0-6S647.8,186,651.67,186Z"/><path class="cls-20" d="M668.67,248c-3.86,0-3.87,6,0,6S672.53,248,668.67,248Z"/><path class="cls-20" d="M786.88,244.36c3.86,0,3.86-6,0-6S783,244.36,786.88,244.36Z"/><path class="cls-20" d="M923,300.36h33c3.86,0,3.87-6,0-6H923C919.14,294.36,919.13,300.36,923,300.36Z"/><path class="cls-20" d="M971.5,299.36c3.86,0,3.87-6,0-6S967.63,299.36,971.5,299.36Z"/><path class="cls-20" d="M923.46,622.54a2.76,2.76,0,0,0,2,.82h59.83v-5.25H923.52l-.06.06Z"/><path class="cls-20" d="M1040.8,602.26h-2.37a2.15,2.15,0,0,0-2.15,2.15v39.67H1041V603.36A3.08,3.08,0,0,0,1040.8,602.26Z"/><path class="cls-20" d="M1041,686.71h-4.72v49.7H1041Z"/><path class="cls-20" d="M1041,653.25h-4.72v24.29H1041Z"/><path class="cls-20" d="M1093.5,633.36h.07V630a2.15,2.15,0,0,0-2.15-2.15h-19.76a2.15,2.15,0,0,0-2.15,2.15v3.36Z"/><path class="cls-20" d="M1107,724.28h-4.27v12.13H1107Z"/><path class="cls-20" d="M1106.53,579.73h-1.65a2.15,2.15,0,0,0-2.15,2.14V715.12H1107V581.36A2.86,2.86,0,0,0,1106.53,579.73Z"/><path class="cls-20" d="M1137,611.86h22a3.2,3.2,0,0,0,1-.18v-1.54a2.15,2.15,0,0,0-2.15-2.15h-19.76a2.15,2.15,0,0,0-2.15,2.15v1.53A3.06,3.06,0,0,0,1137,611.86Z"/><path class="cls-20" d="M1193.25,660.81v-24.3H1190v24.3Z"/><path class="cls-20" d="M1190,627.35h3.25V604.41a2.15,2.15,0,0,0-2.15-2.15H1190s0,.06,0,.1Z"/><path class="cls-20" d="M1193.25,736.41V670H1190v66.43Z"/><path class="cls-20" d="M790.33,590.69H827c3.86,0,3.87-6,0-6H790.33C786.47,584.69,786.47,590.69,790.33,590.69Z"/><path class="cls-20" d="M848.33,582c-3.86,0-3.86,6,0,6S852.2,582,848.33,582Z"/><path class="cls-32" d="M1212.57,736.41h-10.15v-132a11.34,11.34,0,0,0-11.32-11.32h-19.76a11.31,11.31,0,0,0-10.1,6.24,11.31,11.31,0,0,0-3.37-.51h-19.76a11.78,11.78,0,0,0-2.15.21V581.87a11.32,11.32,0,0,0-11.31-11.31h-19.77a11.32,11.32,0,0,0-11.31,11.31v37a11.7,11.7,0,0,0-2.15-.21h-19.76a11.61,11.61,0,0,0-2.15.21V604.41a11.34,11.34,0,0,0-11.32-11.32h-19.76a11.34,11.34,0,0,0-11.32,11.32v132H997.93V719.7a4.57,4.57,0,0,0-3.44-4.42V704.73c14.59-1.72,18.62-11.64,18.62-17.11V640.93c0-7.81-8.57-11.27-9.55-11.64a4.51,4.51,0,0,0-1.62-.3h-7.45V613.53a4.59,4.59,0,0,0-4.58-4.59h-71a4.59,4.59,0,0,0-4.58,4.59V715.28a4.58,4.58,0,0,0-3.44,4.42v16.71H847.8V726.29a4.58,4.58,0,0,0-4.58-4.58H819.3a23.2,23.2,0,0,0,5.57-16,.81.81,0,0,0,0-.16l-.35-4.76h40.1a19.12,19.12,0,0,0,19.09-19.1V491.89a19.12,19.12,0,0,0-19.09-19.1H794a40.25,40.25,0,0,0,3.3-6.86c2.94-8.1,2.51-15.13-1.08-19.78C808.27,434.51,808.1,413,808.08,412a4.58,4.58,0,0,0-4.14-4.49,39.66,39.66,0,0,1-10.1-2.2c6.86-10.2,9-25.44,9.24-27.41a4.58,4.58,0,0,0-6.88-4.52c-5.88,3.49-13.76,4.22-19.62,4.19,5.33-10,6.19-24,6.29-26a4.58,4.58,0,0,0-6.68-4.29c-14.27,7.38-35.66,12.54-48.26,15.15,6.22-15.15-1.25-31.32-1.64-32.14a4.58,4.58,0,0,0-8.13-.29c-11.22,19.92-43.19,35-56.53,40.63a41,41,0,0,0-10.21-20.41,4.59,4.59,0,0,0-7.89,2.46c-1.07,7.31-6.75,15-10.92,20.13-5.65,6.95-11.52,14.56-16.22,23.16-8.72,15.93-10,33.45-9.82,47.49-.26.19-.52.39-.78.61-5.37,4.48-6.5,12.45-3.08,21.87a40.25,40.25,0,0,0,3.3,6.86H535.39a19.12,19.12,0,0,0-19.09,19.1V681.7a19.12,19.12,0,0,0,19.09,19.1H595l4.51,14.07a23.25,23.25,0,0,0,3.54,6.84h-46.3a4.58,4.58,0,0,0-4.58,4.58v10.12H454.5c-14.54-18-19.25-18-20.83-18H412.92L355.46,571a4.69,4.69,0,0,0-.89-1.41,14.35,14.35,0,0,0,.51-3.73,14.19,14.19,0,0,0-.2-2.27L409,485.79a62.73,62.73,0,0,0,5.51,4.47c2.2,3,10.93,14.59,17.55,19a4.65,4.65,0,0,0,2.55.77,4.41,4.41,0,0,0,.89-.09,4.6,4.6,0,0,0,2.92-1.95l36.13-54.14a4.58,4.58,0,0,0-1.26-6.36c-6.63-4.42-20.69-8-24.3-8.92-27.26-16.78-59.54-7.22-60.91-6.8a4.58,4.58,0,0,0-3.22,4.83,88.81,88.81,0,0,0,9.27,29.55,6,6,0,0,0-.51.6l-60.38,87a14.28,14.28,0,0,0,.09,24.33,4.47,4.47,0,0,0,.29,1.48l54.13,138.82h-2.92c-1.58,0-6.29,0-20.83,18H305.48V651a11.66,11.66,0,0,0-11.65-11.64h-1.55l5.48-31.92A9.9,9.9,0,0,0,289.7,596l-8.46-1.44a9.88,9.88,0,0,0-11.41,8.06l-6.3,36.72h-6.37l-6.37-51.56a2.85,2.85,0,0,0-3.19-2.49l-10.52,1.3a2.88,2.88,0,0,0-2.49,3.2l6.12,49.55h-3A11.65,11.65,0,0,0,226,651v85.46H187.43a9.31,9.31,0,0,0-9.3,9.3v18a9.32,9.32,0,0,0,9.3,9.31h501.3v13.08a11.27,11.27,0,1,0,22.54,0V773.07h501.3a9.32,9.32,0,0,0,9.3-9.31v-18A9.31,9.31,0,0,0,1212.57,736.41ZM994.49,638.16H1001c1.47.74,3,2,3,2.77v46.69c0,.29-.13,6.36-9.46,7.87Zm-759.29,42h61.11v21.39H235.2Zm0,28.26h61.11v28H235.2ZM626.05,721.2a14.41,14.41,0,0,1-2.21.51h-4.23a14.14,14.14,0,0,1-11.34-9.64l-3.62-11.27h29.69l.84,2.63A14.13,14.13,0,0,1,626.05,721.2ZM644,700.8h21.27l-7.49,20.91H640.35A23.29,23.29,0,0,0,644,700.8Zm171.75,5.35A14.13,14.13,0,0,1,792,717a14,14,0,0,1-4.52-9.74l-.14-6.46h28Zm-37.55-5.35.15,6.74a23.12,23.12,0,0,0,5.54,14.17H742.26l-7.49-20.91Zm258.12-47.55h24.06v24.29h-24.06Zm0,33.46h24.06v49.7h-24.06Zm35.38-58.86h19.76a2.15,2.15,0,0,1,2.15,2.15V736.41h-24.06V630A2.15,2.15,0,0,1,1071.66,627.85Zm31.07,96.43h24.07v12.13h-24.07ZM1138.11,608h19.76a2.15,2.15,0,0,1,2.15,2.15V736.41H1136V610.14A2.15,2.15,0,0,1,1138.11,608Zm31.08,2.15v-5.73a2.15,2.15,0,0,1,2.15-2.15h19.76a2.15,2.15,0,0,1,2.15,2.15v22.94h-24.06Zm0,26.37h24.06v24.3h-24.06Zm0,33.47h24.06v66.43h-13.18V710.34c0-3-4.58-3-4.58,0v26.07h-6.3Zm-42.39-88.11V715.12h-24.07V581.87a2.15,2.15,0,0,1,2.15-2.14h19.77A2.15,2.15,0,0,1,1126.8,581.87Zm-66.46,22.54v39.67h-24.06V604.41a2.15,2.15,0,0,1,2.15-2.15h19.76A2.15,2.15,0,0,1,1060.34,604.41Zm-136.82,13.7h61.81v7.45h-29.6c-3,0-3,4.58,0,4.58h29.6v85H923.46v-10.7h23.29c3,0,3-4.58,0-4.58H923.46V618.11ZM920,724.28h68.75v12.13H920Zm-81.38,6.59v5.54H747.53l-2-5.54ZM624.44,400.35c4.34-8,9.91-15.16,15.28-21.77a74.47,74.47,0,0,0,9.91-15.05c2.22,4.25,3.6,9.06,3,13.17a4.58,4.58,0,0,0,6.1,4.92c1.89-.68,42.15-15.45,61.74-39.05,1.25,6.66,1.28,16-5.51,23.18a4.58,4.58,0,0,0,4,7.68c1.41-.23,31.34-5.14,53.78-14.52-1.26,7.52-3.83,15.94-7.92,18.88a4.58,4.58,0,0,0,1.94,8.24c.67.11,13.52,2.13,25.55-1.24-1.63,6.54-4.5,14.59-8.81,18.55a4.57,4.57,0,0,0,.14,6.88c.54.46,5.11,4.11,15,5.83-.53,6.44-2.6,19.12-10.63,25a12.31,12.31,0,0,0-4.52,0,15,15,0,0,0-5.29,2.14v-9.8h-9.16v7.86c-60.6,5.19-122.49-2.87-138.26-5.17v-2.69h-9.16v9.8a15,15,0,0,0-5.29-2.14l-.7-.1C615.75,428,617.2,413.58,624.44,400.35ZM781,459.73a11,11,0,0,1-2.7,3v-6.85c1.5-2.18,4.35-5.43,6.91-5.89a3.69,3.69,0,0,1,3.15,1.1c2,1.72,1.81,5.35,1.48,7.36-1.16,7.14-5.9,13.45-7.68,14.33h-3.86v-6a14.26,14.26,0,0,0,5.66-5.37C785.09,459.57,782.12,457.84,781,459.73Zm-43.94,3.89a5.73,5.73,0,0,0-5.73,5.73v3.44H668.68v-3.44a5.73,5.73,0,1,0-11.46,0v3.44H630.87V445.27a715.7,715.7,0,0,0,95.92,6.79c13.77,0,28.08-.49,42.34-1.68v22.41H742.77v-3.44A5.73,5.73,0,0,0,737.05,463.62ZM611.66,451.1a3.66,3.66,0,0,1,3.14-1.1c2.56.46,5.41,3.71,6.91,5.89v5.38a26.27,26.27,0,0,1-2.69-2.59c-1.48-1.66-3.9.78-2.43,2.43a28.84,28.84,0,0,0,5.12,4.5v7.18h-3.86c-1.78-.88-6.52-7.19-7.68-14.33C609.84,456.45,609.6,452.82,611.66,451.1Zm-86.2,230.6V491.89a9.94,9.94,0,0,1,9.93-9.93H864.61a9.94,9.94,0,0,1,9.93,9.93V681.7a9.94,9.94,0,0,1-9.93,9.93H535.39A9.94,9.94,0,0,1,525.46,681.7Zm35.9,49.17H619a22.29,22.29,0,0,0,2.71.18,22.72,22.72,0,0,0,2.72-.18h30l-2,5.54H561.36ZM395.62,444.32c-.46-1.79-.8-3.38-1.05-4.68,8.24-1.7,28.28-4.35,46.1,4.78l-2.76,4.14-21.24,31.81C403.81,469.46,398.06,453.89,395.62,444.32Zm40.59,43.58a1.77,1.77,0,0,0-2.43,0,1.74,1.74,0,0,0,0,2.43l3.15,2.58a2.64,2.64,0,0,0,.35.23l-3.7,5.54a117.64,117.64,0,0,1-10.21-11.83l12.92-19.36L442.6,458l2.35,1.49c1.87,1.18,3.6-1.79,1.73-3l-2.18-1.37,2.74-4.1,2-3A117.68,117.68,0,0,1,464.06,453l-2.19,3.29-22.7,34Zm-37.67-12.19,2.94,2c.34.44.68.89,1,1.32l-22.91,33a48,48,0,0,0-3.39-4.13ZM373,512.48a28.24,28.24,0,0,0,3.8,3.53L374,520.1a1.81,1.81,0,0,0-.49-.46l-3.75-2.43ZM367.75,520l4,2.58a2.31,2.31,0,0,0,.35.18l-22.25,32a14.26,14.26,0,0,0-4.5-2.49Zm-28.94,50.61a5.16,5.16,0,1,1,1.95.38A5.25,5.25,0,0,1,338.81,570.64Zm5,9.84,4.8-1.87,8.69,22.28-5.56-.09Zm9.28,23.78,5.56.09,2.87,7.36H356ZM358,617h5.53l21.5,55.14h-5.53Zm22.84,58.58h5.53l16.69,42.77h-5.54Zm4.41,51.94h47.9c1.61.82,5.23,4.33,9.28,8.88H376C380.05,731.86,383.67,728.35,385.28,727.53ZM276.6,603.75a3,3,0,0,1,3.47-2.44l8.46,1.44a3,3,0,0,1,2.46,3.48l-1.46,8.48-14.38-2.47ZM274,619l14.39,2.47-3.06,17.82H270.5Zm-22.59,20.29h-4.91L242.73,609l4.84-.6Zm-10.76-47.42,4.83-.6,1.26,10.24-4.83.6Zm53.2,56.58a2.49,2.49,0,0,1,2.48,2.48V673.3H235.2V651a2.49,2.49,0,0,1,2.49-2.48h56.14ZM187.43,763.9a.15.15,0,0,1-.14-.14v-18a.14.14,0,0,1,.14-.14h501.3V763.9Zm501.3-42.29v14.8H662.21L675,700.8H725l12.75,35.61H711.27v-14.8a11.27,11.27,0,0,0-22.54,0Zm13.37,64.54a2.1,2.1,0,1,1-4.2,0V721.61a2.1,2.1,0,1,1,4.2,0Zm510.47-22.25H711.27V745.57h501.3a.14.14,0,0,1,.14.14v18A.15.15,0,0,1,1212.57,763.9Z"/><path class="cls-32" d="M700,619.64a32.85,32.85,0,1,0-32.85-32.85A32.89,32.89,0,0,0,700,619.64Zm0-56.53a23.68,23.68,0,1,1-23.68,23.68A23.71,23.71,0,0,1,700,563.11Z"/><path class="cls-32" d="M827.47,507.16h24.06a5.44,5.44,0,1,0,0-10.88H827.47a5.44,5.44,0,1,0,0,10.88Z"/><path class="cls-32" d="M550.29,659.17V563.69c0-4.43-6.88-4.43-6.88,0v95.48C543.41,663.59,550.29,663.6,550.29,659.17Z"/><path class="cls-32" d="M546.85,544.21c4.42,0,4.43-6.88,0-6.88S542.42,544.21,546.85,544.21Z"/><path class="cls-32" d="M546.85,526.64c4.42,0,4.43-6.87,0-6.87S542.42,526.64,546.85,526.64Z"/><path class="cls-32" d="M546.85,509.07c4.42,0,4.43-6.87,0-6.87S542.42,509.07,546.85,509.07Z"/><path class="cls-32" d="M752.32,668h84.79c4.42,0,4.43-6.87,0-6.87H752.32C747.9,661.08,747.89,668,752.32,668Z"/><path class="cls-32" d="M850.86,660.31c-4.43,0-4.43,6.88,0,6.88S855.29,660.31,850.86,660.31Z"/><path class="cls-32" d="M243.22,725.81c3.69,0,3.7-5.73,0-5.73S239.53,725.81,243.22,725.81Z"/><path class="cls-32" d="M254.87,725.81c3.69,0,3.69-5.73,0-5.73S251.18,725.81,254.87,725.81Z"/><path class="cls-32" d="M265,725.81h22c3.69,0,3.7-5.73,0-5.73H265C261.31,720.08,261.3,725.81,265,725.81Z"/><path class="cls-32" d="M406.73,448.89c-.74-2.07-4.06-1.17-3.31.91a30,30,0,0,0,5.61,9.58c1.45,1.67,3.87-.77,2.43-2.44A25.24,25.24,0,0,1,406.73,448.89Z"/><path class="cls-32" d="M413.94,461.05a1.72,1.72,0,0,0,0,3.43A1.72,1.72,0,0,0,413.94,461.05Z"/><path class="cls-32" d="M1081.54,653.82a6.3,6.3,0,0,0-6.3,6.3V704a6.3,6.3,0,0,0,12.6,0V660.12A6.3,6.3,0,0,0,1081.54,653.82Z"/><rect class="cls-32" x="1141.98" y="631.38" width="11.74" height="20.34"/><rect class="cls-32" x="1141.98" y="662.22" width="11.74" height="45.07"/><path class="cls-32" d="M1120.11,633.58v-40.1c0-3-4.58-3-4.58,0v40.1C1115.53,636.53,1120.11,636.53,1120.11,633.58Z"/><path class="cls-32" d="M1117.44,646.18c3,0,3-4.58,0-4.58S1114.48,646.18,1117.44,646.18Z"/><path class="cls-32" d="M1117.44,655.73c3,0,3-4.58,0-4.58S1114.48,655.73,1117.44,655.73Z"/><path class="cls-32" d="M1177.4,700.8c2.95,0,2.95-4.59,0-4.59S1174.45,700.8,1177.4,700.8Z"/><path class="cls-32" d="M1055.57,711.11v-10.7c0-2.95-4.59-2.95-4.59,0v10.7C1051,714.06,1055.57,714.06,1055.57,711.11Z"/><path class="cls-32" d="M1052.89,717.27c-3,0-3,4.58,0,4.58S1055.85,717.27,1052.89,717.27Z"/><path class="cls-32" d="M1045.73,627.47a2.34,2.34,0,0,0,2.29-2.29v-2.87a2.31,2.31,0,0,0-2.29-2.29,2.34,2.34,0,0,0-2.29,2.29v2.87A2.33,2.33,0,0,0,1045.73,627.47Z"/><path class="cls-32" d="M1045.73,618c3,0,3-4.58,0-4.58S1042.78,618,1045.73,618Z"/><path class="cls-32" d="M1186.09,607.13a2.34,2.34,0,0,0-2.29,2.29v2.87a2.29,2.29,0,0,0,4.58,0v-2.87A2.31,2.31,0,0,0,1186.09,607.13Z"/><path class="cls-32" d="M653.1,423.82A196.33,196.33,0,0,0,694.84,426c3.66-.2,3.69-5.93,0-5.72a189.17,189.17,0,0,1-40.21-2C651,417.72,649.47,423.24,653.1,423.82Z"/><path class="cls-32" d="M705.44,424.38c3.69,0,3.69-5.73,0-5.73S701.75,424.38,705.44,424.38Z"/><path class="cls-32" d="M715.18,423.52c3.69,0,3.69-5.73,0-5.73S711.49,423.52,715.18,423.52Z"/><path class="cls-32" d="M744.11,389.15c3.69,0,3.69-5.73,0-5.73S740.42,389.15,744.11,389.15Z"/><path class="cls-32" d="M950.4,681.94a24.27,24.27,0,0,0,12-3.34c9.76-5.64,14.1-16.45,9.68-24.11s-16-9.31-25.72-3.68-14.09,16.45-9.67,24.11C939.35,679.51,944.55,681.94,950.4,681.94Zm-.59-25.17a17.56,17.56,0,0,1,8.66-2.45c3.39,0,6.29,1.23,7.67,3.6,2.48,4.31-.8,11.05-7.16,14.72s-13.84,3.15-16.33-1.16S943.45,660.44,949.81,656.77Z"/><path class="cls-32" d="M948.77,668a3.6,3.6,0,0,0,1.89.68,6,6,0,0,0,3.07-.62,10.12,10.12,0,0,0,2.87-2.24c.82-.88,1.45-1.72,2-2.4a9.55,9.55,0,0,1,1.85-1.65,5.08,5.08,0,0,1,1.73-.73,4.59,4.59,0,0,1,.78-.09,3,3,0,0,0-.71-.38,4.65,4.65,0,0,0-2.21-.27,7.08,7.08,0,0,0-3.05,1.1,14.73,14.73,0,0,0-2.71,2.38c-.8.85-1.47,1.62-2.09,2.17a7.17,7.17,0,0,1-1.88,1.23,4,4,0,0,1-1.48.35,2.86,2.86,0,0,1-.6,0l.11.13A2.75,2.75,0,0,0,948.77,668Z"/><path class="cls-32" d="M958.4,699.84c-2.95,0-2.95,4.58,0,4.58S961.36,699.84,958.4,699.84Z"/><path class="cls-32" d="M968.71,699.84c-2.94,0-3,4.58,0,4.58S971.67,699.84,968.71,699.84Z"/><path class="cls-32" d="M627.4,217.43a27.16,27.16,0,1,0,27.16-27.16A27.19,27.19,0,0,0,627.4,217.43Zm27.16-18a18,18,0,1,1-18,18A18,18,0,0,1,654.56,199.44Z"/><path class="cls-32" d="M762.88,275.59a19.7,19.7,0,0,0,3.4.3,19.23,19.23,0,0,0,18.89-15.81,19.21,19.21,0,0,0-15.51-22.29,19.2,19.2,0,1,0-6.78,37.8Zm-7.61-20.87a11.19,11.19,0,1,1,1.83,8.36A11.08,11.08,0,0,1,755.27,254.72Z"/><path class="cls-32" d="M725,238a4,4,0,0,0-4.65,3.24l-2.5,13.9a4,4,0,0,0,3.24,4.66l8.34,1.49c0,.42.11.83.18,1.24a15.89,15.89,0,0,1-4.93,1.29,2.93,2.93,0,0,0-2.86,2.86,2.87,2.87,0,0,0,2.86,2.86,23.33,23.33,0,0,0,5.29-1.08l-6.06,4.22a4,4,0,0,0-1,5.58l8.08,11.6a4,4,0,0,0,5.58,1l7-4.83a38.35,38.35,0,0,0,5.64,3.62L747.61,298a4,4,0,0,0,3.24,4.66l13.9,2.49a4.34,4.34,0,0,0,.71.06,4,4,0,0,0,3.95-3.3l1.49-8.33a36.64,36.64,0,0,0,6.55-1.44l4.84,7a4,4,0,0,0,5.58,1l11.6-8.07a4,4,0,0,0,1-5.58l-4.83-7c.41-.53.81-1.08,1.19-1.63a92.91,92.91,0,0,0,14.57,10.84c3.17,1.9,6.05-3,2.89-4.94a87,87,0,0,1-12.94-9.53l6.24,1.12a4,4,0,0,0,4.66-3.24l2.49-13.91a4,4,0,0,0-3.24-4.66l-8.33-1.49a36.84,36.84,0,0,0-1.44-6.55l7-4.84a4,4,0,0,0,1-5.58l-8.07-11.6a4,4,0,0,0-5.58-1l-7,4.84-.59-.44a82.41,82.41,0,0,0,8.41-14.42c1.5-3.34-3.43-6.25-4.95-2.89a81.36,81.36,0,0,1-8.29,14.25l-.22-.12,1.5-8.34a4,4,0,0,0-3.24-4.65l-13.91-2.5a4,4,0,0,0-4.66,3.24l-1.49,8.33a36.84,36.84,0,0,0-6.55,1.44l-4.84-6.95a4,4,0,0,0-5.58-1l-11.6,8.07a4,4,0,0,0-1.66,2.58,4,4,0,0,0,.66,3l4.84,6.95a36.77,36.77,0,0,0-3.62,5.64Zm14.37,7.51a28.85,28.85,0,0,1,5.58-8.68,4,4,0,0,0,.35-5l-4.31-6.19,5-3.49,4.31,6.2a4,4,0,0,0,4.83,1.41,28.79,28.79,0,0,1,10.08-2.21,4,4,0,0,0,3.81-3.3l1.33-7.43,6,1.08L775,225.33a4,4,0,0,0,2.42,4.41,29,29,0,0,1,8.69,5.58,4,4,0,0,0,5,.36l6.19-4.32,3.49,5-6.19,4.31a4,4,0,0,0-1.41,4.83,29,29,0,0,1,2.21,10.09,4,4,0,0,0,3.3,3.8l7.42,1.33-1.08,6-7.42-1.33a4,4,0,0,0-4.42,2.42,28.83,28.83,0,0,1-5.58,8.69,4,4,0,0,0-.35,5l4.31,6.19-5,3.49L782.27,285a4,4,0,0,0-4.83-1.41,29,29,0,0,1-10.08,2.21,4,4,0,0,0-3.81,3.29l-1.33,7.43-6-1.08,1.33-7.42a4,4,0,0,0-2.42-4.42,28.66,28.66,0,0,1-8.68-5.58,4,4,0,0,0-5-.35L735.22,282l-3.49-5,6.19-4.31a4,4,0,0,0,1.42-4.83,28.74,28.74,0,0,1-2.21-10.08,4,4,0,0,0-3.3-3.8l-7.43-1.34,1.08-6,7.43,1.33A4,4,0,0,0,739.32,245.54Z"/><path class="cls-32" d="M319.89,399.46H517.54A17.49,17.49,0,0,0,535,382V262.26a17.5,17.5,0,0,0-17.47-17.48H319.89a17.5,17.5,0,0,0-17.47,17.48V382A17.49,17.49,0,0,0,319.89,399.46Zm-8.3-137.2a8.31,8.31,0,0,1,8.3-8.31H517.54a8.31,8.31,0,0,1,8.3,8.31V382a8.31,8.31,0,0,1-8.3,8.3H319.89a8.31,8.31,0,0,1-8.3-8.3Z"/><path class="cls-32" d="M324.76,383.8H512.67a6,6,0,0,0,6-6V266.46a6,6,0,0,0-6-6H324.76a6,6,0,0,0-6,6V377.78A6,6,0,0,0,324.76,383.8Zm3.15-114.19H509.52v105H327.91Z"/><path class="cls-32" d="M882.46,399.46h197.65A17.49,17.49,0,0,0,1097.58,382V262.26a17.5,17.5,0,0,0-17.47-17.48H882.46A17.5,17.5,0,0,0,865,262.26V382A17.49,17.49,0,0,0,882.46,399.46Zm-8.3-137.2a8.31,8.31,0,0,1,8.3-8.31h197.65a8.31,8.31,0,0,1,8.3,8.31V382a8.31,8.31,0,0,1-8.3,8.3H882.46a8.31,8.31,0,0,1-8.3-8.3Z"/><path class="cls-32" d="M887.33,383.8h187.91a6,6,0,0,0,6-6V266.46a6,6,0,0,0-6-6H887.33a6,6,0,0,0-6,6V377.78A6,6,0,0,0,887.33,383.8Zm3.15-114.19h181.61v105H890.48Z"/><path class="cls-32" d="M625.91,151c3.68,0,3.69-5.73,0-5.73S622.21,151,625.91,151Z"/><path class="cls-32" d="M720.91,190.65c3.69,0,3.69-5.73,0-5.73S717.22,190.65,720.91,190.65Z"/><path class="cls-32" d="M582,247.52a83,83,0,0,0,23.82-7.15c.47,1,1,2,1.51,3L597.68,253a4.59,4.59,0,0,0,0,6.48l14.85,14.85a4.58,4.58,0,0,0,6.48,0l9.63-9.63a53,53,0,0,0,10.83,4.49v13.61a4.59,4.59,0,0,0,4.59,4.59h21a4.59,4.59,0,0,0,4.58-4.59V269.17c1.17-.34,2.32-.73,3.46-1.15q1.17,2.91,2.33,5.8a3,3,0,0,0,3.53,2,2.88,2.88,0,0,0,2-3.52c-.88-2.17-1.75-4.35-2.62-6.52.72-.35,1.43-.71,2.13-1.1l9.63,9.63a4.58,4.58,0,0,0,6.48,0l14.86-14.85a4.59,4.59,0,0,0,0-6.48l-9.63-9.63a53.58,53.58,0,0,0,4.49-10.83h13.61a4.59,4.59,0,0,0,4.58-4.59v-21a4.58,4.58,0,0,0-4.58-4.58H706.3c-.24-.83-.51-1.64-.78-2.45a12.34,12.34,0,0,0,1.72-1.16l6.59-5.2c1.22-1,1-3,0-4a2.92,2.92,0,0,0-4.05,0l-4,3.16a27.86,27.86,0,0,1-2.4,1.95c-.49-1-1-2.08-1.56-3.09l9.63-9.62a4.59,4.59,0,0,0,0-6.48l-14.86-14.86a4.58,4.58,0,0,0-6.48,0l-9.63,9.63a52.55,52.55,0,0,0-10.83-4.49V152.08a4.59,4.59,0,0,0-4.58-4.59h-21a4.59,4.59,0,0,0-4.59,4.59v13.61c-.72.21-1.44.45-2.16.69q-2.26-4.92-4.54-9.83c-1.54-3.34-6.48-.43-4.95,2.9q2.1,4.52,4.19,9.05c-1.14.52-2.27,1.07-3.37,1.68L619,160.55a4.58,4.58,0,0,0-6.48,0l-14.85,14.86a4.58,4.58,0,0,0,0,6.48l9.63,9.62a53.46,53.46,0,0,0-4.5,10.84H589.2a4.58,4.58,0,0,0-4.58,4.58v21a4.59,4.59,0,0,0,4.58,4.59h13.61c.25.86.53,1.7.82,2.55A79.2,79.2,0,0,1,580.46,242C576.82,242.51,578.37,248,582,247.52Zm11.81-24.17V211.51h12.59a4.59,4.59,0,0,0,4.48-3.61,44.49,44.49,0,0,1,6.06-14.63,4.59,4.59,0,0,0-.61-5.72l-8.91-8.9,8.37-8.38,8.91,8.91a4.59,4.59,0,0,0,5.72.62A44.21,44.21,0,0,1,645,173.73a4.58,4.58,0,0,0,3.61-4.48V156.66h11.84v12.59a4.58,4.58,0,0,0,3.61,4.48,44.39,44.39,0,0,1,14.63,6.07,4.59,4.59,0,0,0,5.72-.62l8.9-8.91,8.38,8.38-8.91,8.9a4.59,4.59,0,0,0-.62,5.72,44.3,44.3,0,0,1,6.07,14.63,4.58,4.58,0,0,0,4.48,3.61h12.59v11.84H702.74a4.58,4.58,0,0,0-4.48,3.61,44.21,44.21,0,0,1-6.07,14.63,4.59,4.59,0,0,0,.62,5.72l8.91,8.91-8.38,8.37-8.9-8.91a4.59,4.59,0,0,0-5.72-.61,44.58,44.58,0,0,1-14.63,6.06,4.58,4.58,0,0,0-3.61,4.48V278.2H648.64V265.61a4.58,4.58,0,0,0-3.61-4.48,44.4,44.4,0,0,1-14.63-6.06,4.59,4.59,0,0,0-5.72.61l-8.91,8.91-8.37-8.37,8.91-8.91a4.59,4.59,0,0,0,.61-5.72A44.4,44.4,0,0,1,610.86,227a4.59,4.59,0,0,0-4.48-3.61Z"/><path class="cls-32" d="M571.29,247.65c3.69,0,3.69-5.73,0-5.73S567.6,247.65,571.29,247.65Z"/><path class="cls-32" d="M685.1,287.37c3.69,0,3.7-5.73,0-5.73S681.41,287.37,685.1,287.37Z"/><path class="cls-32" d="M716.23,264.26c-3.68,0-3.69,5.73,0,5.73S719.92,264.26,716.23,264.26Z"/><path class="cls-32" d="M799.11,202.39c3.68,0,3.69-5.73,0-5.73S795.42,202.39,799.11,202.39Z"/><path class="cls-32" d="M821.26,293.67c3.69,0,3.69-5.73,0-5.73S817.57,293.67,821.26,293.67Z"/></svg>